<?xml version="1.0" encoding="UTF-8" standalone="yes"?><svg xmlns="http://www.w3.org/2000/svg" xmlns:xlink="http://www.w3.org/1999/xlink" height="346pt" style="width:414px;height:346px;" version="1.1" viewBox="0 0 414 346" width="414pt"><defs><filter height="300%" id="f1" width="300%" x="-1" y="-1"><feGaussianBlur result="blurOut" stdDeviation="2.0"/><feColorMatrix in="blurOut" result="blurOut2" type="matrix" values="0 0 0 0 0 0 0 0 0 0 0 0 0 0 0 0 0 0 .4 0"/><feOffset dx="4.0" dy="4.0" in="blurOut2" result="blurOut3"/><feBlend in="SourceGraphic" in2="blurOut3" mode="normal"/></filter></defs><g><rect fill="#FEFECE" filter="url(#f1)" height="60.8047" style="stroke: #A80036; stroke-width: 1.5;" width="182" x="114" y="154.5"/><ellipse cx="137.55" cy="170.5" fill="#B4A7E5" rx="11" ry="11" style="stroke: #A80036; stroke-width: 1.0;"/><path d="M138.5031,167.2813 L138.5031,173.7969 L140.2219,173.7969 C140.675,173.7969 140.8156,173.8281 140.9875,173.9531 C141.2219,174.125 141.3313,174.375 141.3313,174.6563 C141.3313,175.2188 140.9719,175.5 140.2219,175.5 L135.0813,175.5 C134.675,175.5 134.4719,175.4531 134.3156,175.3281 C134.0969,175.1719 133.9563,174.9063 133.9563,174.6563 C133.9563,174.3594 134.1125,174.0781 134.3625,173.9219 C134.5188,173.8125 134.6438,173.7969 135.0813,173.7969 L136.8,173.7969 L136.8,167.2813 L135.0813,167.2813 C134.6594,167.2813 134.4719,167.25 134.3156,167.1406 C134.0969,166.9688 133.9563,166.7188 133.9563,166.4375 C133.9563,166.1563 134.1125,165.8594 134.3625,165.7031 C134.5188,165.6094 134.6438,165.5938 135.0813,165.5938 L140.2219,165.5938 C140.675,165.5938 140.8156,165.625 140.9875,165.7344 C141.2219,165.9063 141.3313,166.1719 141.3313,166.4375 C141.3313,166.7344 141.1906,167.0156 140.925,167.1719 C140.8,167.25 140.6125,167.2813 140.2219,167.2813 Z "/><text fill="#000000" font-family="sans-serif" font-size="12" font-style="italic" lengthAdjust="spacingAndGlyphs" textLength="131" x="153.45" y="175.5156">ComparatorInterface</text><line style="stroke: #A80036; stroke-width: 1.5;" x1="115" x2="295" y1="186.5" y2="186.5"/><line style="stroke: #A80036; stroke-width: 1.5;" x1="115" x2="295" y1="194.5" y2="194.5"/><ellipse cx="125" cy="206.4023" fill="#84BE84" rx="3" ry="3" style="stroke: #038048; stroke-width: 1.0;"/><text fill="#000000" font-family="sans-serif" font-size="11" lengthAdjust="spacingAndGlyphs" textLength="156" x="134" y="209.5">compare(a:mixed, b:mixed)</text><rect fill="#FEFECE" filter="url(#f1)" height="60.8047" style="stroke: #A80036; stroke-width: 1.5;" width="182" x="6" y="276.5"/><ellipse cx="41.7" cy="292.5" fill="#ADD1B2" rx="11" ry="11" style="stroke: #A80036; stroke-width: 1.0;"/><path d="M44.0438,288.1719 L44.2156,288.25 C44.4344,287.9375 44.6375,287.8438 44.9344,287.8438 C45.2313,287.8438 45.5125,287.9844 45.6688,288.25 C45.7625,288.4063 45.7781,288.5313 45.7781,288.9688 L45.7781,290.3906 C45.7781,290.8125 45.7469,291 45.6375,291.1563 C45.4656,291.375 45.2,291.5156 44.9344,291.5156 C44.7156,291.5156 44.4813,291.4063 44.3406,291.2656 C44.2,291.1406 44.1688,291.0156 44.1063,290.6094 C44.0125,290.2031 43.8406,289.9844 43.3563,289.7031 C42.8875,289.4531 42.2781,289.2969 41.7,289.2969 C39.9656,289.2969 38.7156,290.6094 38.7156,292.3906 L38.7156,293.4844 C38.7156,295.1875 40.0125,296.2813 42.0594,296.2813 C42.825,296.2813 43.5125,296.1563 43.9344,295.8906 C44.1219,295.7969 44.1219,295.7969 44.575,295.3125 C44.7625,295.125 44.9656,295.0469 45.1844,295.0469 C45.6531,295.0469 46.0438,295.4375 46.0438,295.8906 C46.0438,296.2813 45.7156,296.7344 45.1375,297.1406 C44.3875,297.6875 43.2313,297.9844 42.0125,297.9844 C39.1219,297.9844 37.0125,296.0938 37.0125,293.5156 L37.0125,292.3906 C37.0125,289.6719 39.0125,287.5938 41.6375,287.5938 C42.5125,287.5938 43.1063,287.7344 44.0438,288.1719 Z "/><text fill="#000000" font-family="sans-serif" font-size="12" lengthAdjust="spacingAndGlyphs" textLength="104" x="60.3" y="297.5156">DateComparator</text><line style="stroke: #A80036; stroke-width: 1.5;" x1="7" x2="187" y1="308.5" y2="308.5"/><line style="stroke: #A80036; stroke-width: 1.5;" x1="7" x2="187" y1="316.5" y2="316.5"/><ellipse cx="17" cy="328.4023" fill="#84BE84" rx="3" ry="3" style="stroke: #038048; stroke-width: 1.0;"/><text fill="#000000" font-family="sans-serif" font-size="11" lengthAdjust="spacingAndGlyphs" textLength="156" x="26" y="331.5">compare(a:mixed, b:mixed)</text><rect fill="#FEFECE" filter="url(#f1)" height="60.8047" style="stroke: #A80036; stroke-width: 1.5;" width="182" x="223" y="276.5"/><ellipse cx="267.25" cy="292.5" fill="#ADD1B2" rx="11" ry="11" style="stroke: #A80036; stroke-width: 1.0;"/><path d="M269.5938,288.1719 L269.7656,288.25 C269.9844,287.9375 270.1875,287.8438 270.4844,287.8438 C270.7813,287.8438 271.0625,287.9844 271.2188,288.25 C271.3125,288.4063 271.3281,288.5313 271.3281,288.9688 L271.3281,290.3906 C271.3281,290.8125 271.2969,291 271.1875,291.1563 C271.0156,291.375 270.75,291.5156 270.4844,291.5156 C270.2656,291.5156 270.0313,291.4063 269.8906,291.2656 C269.75,291.1406 269.7188,291.0156 269.6563,290.6094 C269.5625,290.2031 269.3906,289.9844 268.9063,289.7031 C268.4375,289.4531 267.8281,289.2969 267.25,289.2969 C265.5156,289.2969 264.2656,290.6094 264.2656,292.3906 L264.2656,293.4844 C264.2656,295.1875 265.5625,296.2813 267.6094,296.2813 C268.375,296.2813 269.0625,296.1563 269.4844,295.8906 C269.6719,295.7969 269.6719,295.7969 270.125,295.3125 C270.3125,295.125 270.5156,295.0469 270.7344,295.0469 C271.2031,295.0469 271.5938,295.4375 271.5938,295.8906 C271.5938,296.2813 271.2656,296.7344 270.6875,297.1406 C269.9375,297.6875 268.7813,297.9844 267.5625,297.9844 C264.6719,297.9844 262.5625,296.0938 262.5625,293.5156 L262.5625,292.3906 C262.5625,289.6719 264.5625,287.5938 267.1875,287.5938 C268.0625,287.5938 268.6563,287.7344 269.5938,288.1719 Z "/><text fill="#000000" font-family="sans-serif" font-size="12" lengthAdjust="spacingAndGlyphs" textLength="85" x="287.75" y="297.5156">IdComparator</text><line style="stroke: #A80036; stroke-width: 1.5;" x1="224" x2="404" y1="308.5" y2="308.5"/><line style="stroke: #A80036; stroke-width: 1.5;" x1="224" x2="404" y1="316.5" y2="316.5"/><ellipse cx="234" cy="328.4023" fill="#84BE84" rx="3" ry="3" style="stroke: #038048; stroke-width: 1.0;"/><text fill="#000000" font-family="sans-serif" font-size="11" lengthAdjust="spacingAndGlyphs" textLength="156" x="243" y="331.5">compare(a:mixed, b:mixed)</text><rect fill="#FEFECE" filter="url(#f1)" height="86.4141" style="stroke: #A80036; stroke-width: 1.5;" width="312" x="49" y="8"/><ellipse cx="150.25" cy="24" fill="#ADD1B2" rx="11" ry="11" style="stroke: #A80036; stroke-width: 1.0;"/><path d="M152.5938,19.6719 L152.7656,19.75 C152.9844,19.4375 153.1875,19.3438 153.4844,19.3438 C153.7813,19.3438 154.0625,19.4844 154.2188,19.75 C154.3125,19.9063 154.3281,20.0313 154.3281,20.4688 L154.3281,21.8906 C154.3281,22.3125 154.2969,22.5 154.1875,22.6563 C154.0156,22.875 153.75,23.0156 153.4844,23.0156 C153.2656,23.0156 153.0313,22.9063 152.8906,22.7656 C152.75,22.6406 152.7188,22.5156 152.6563,22.1094 C152.5625,21.7031 152.3906,21.4844 151.9063,21.2031 C151.4375,20.9531 150.8281,20.7969 150.25,20.7969 C148.5156,20.7969 147.2656,22.1094 147.2656,23.8906 L147.2656,24.9844 C147.2656,26.6875 148.5625,27.7813 150.6094,27.7813 C151.375,27.7813 152.0625,27.6563 152.4844,27.3906 C152.6719,27.2969 152.6719,27.2969 153.125,26.8125 C153.3125,26.625 153.5156,26.5469 153.7344,26.5469 C154.2031,26.5469 154.5938,26.9375 154.5938,27.3906 C154.5938,27.7813 154.2656,28.2344 153.6875,28.6406 C152.9375,29.1875 151.7813,29.4844 150.5625,29.4844 C147.6719,29.4844 145.5625,27.5938 145.5625,25.0156 L145.5625,23.8906 C145.5625,21.1719 147.5625,19.0938 150.1875,19.0938 C151.0625,19.0938 151.6563,19.2344 152.5938,19.6719 Z "/><text fill="#000000" font-family="sans-serif" font-size="12" lengthAdjust="spacingAndGlyphs" textLength="101" x="170.75" y="29.0156">ObjectCollection</text><line style="stroke: #A80036; stroke-width: 1.5;" x1="50" x2="360" y1="40" y2="40"/><line style="stroke: #A80036; stroke-width: 1.5;" x1="50" x2="360" y1="48" y2="48"/><ellipse cx="60" cy="59.9023" fill="#84BE84" rx="3" ry="3" style="stroke: #038048; stroke-width: 1.0;"/><text fill="#000000" font-family="sans-serif" font-size="11" lengthAdjust="spacingAndGlyphs" textLength="160" x="69" y="63">__construct(elements:array)</text><ellipse cx="60" cy="72.707" fill="#84BE84" rx="3" ry="3" style="stroke: #038048; stroke-width: 1.0;"/><text fill="#000000" font-family="sans-serif" font-size="11" lengthAdjust="spacingAndGlyphs" textLength="73" x="69" y="75.8047">sort() : array</text><ellipse cx="60" cy="85.5117" fill="#84BE84" rx="3" ry="3" style="stroke: #038048; stroke-width: 1.0;"/><text fill="#000000" font-family="sans-serif" font-size="11" lengthAdjust="spacingAndGlyphs" textLength="286" x="69" y="88.6094">setComparator(comparator: ComparatorInterface)</text><path d="M164.679,230.801 C151.017,245.9807 136.105,262.5499 123.764,276.2624 " fill="none" style="stroke: #A80036; stroke-width: 1.0; stroke-dasharray: 7.0,7.0;"/><polygon fill="none" points="159.721,225.846,178.303,215.663,170.127,235.212,159.721,225.846" style="stroke: #A80036; stroke-width: 1.0;"/><path d="M245.694,230.801 C259.482,245.9807 274.533,262.5499 286.988,276.2624 " fill="none" style="stroke: #A80036; stroke-width: 1.0; stroke-dasharray: 7.0,7.0;"/><polygon fill="none" points="240.21,235.174,231.944,215.663,250.573,225.761,240.21,235.174" style="stroke: #A80036; stroke-width: 1.0;"/><path d="M205,94.129 C205,111.907 205,132.355 205,149.251 " fill="none" style="stroke: #A80036; stroke-width: 1.0; stroke-dasharray: 7.0,7.0;"/><polygon fill="#A80036" points="205,154.374,209,145.374,205,149.374,201,145.374,205,154.374" style="stroke: #A80036; stroke-width: 1.0;"/></g></svg>